<svg xmlns="http://www.w3.org/2000/svg" enable-background="new 0 0 510.397 510.397" viewBox="0 0 510.397 510.397">
    <g>
        <path d="M120.162 141.023c-12.028 16.707-15.26 38.19-8.68 57.697 1.719 2.275 3.449 4.762 5.181 7.311.718 1.059 1.438 2.143 2.159 3.251 1.285 1.973 2.561 3.932 3.758 5.911 1.232-.08 2.518-.134 3.839-.134 3.835.01 7.662.328 11.446.95 1.243.201 2.426.587 3.652.851 2.471.487 4.916 1.102 7.323 1.842 1.415.463 2.751 1.091 4.131 1.637 2.102.832 4.2 1.652 6.21 2.67 1.405.711 2.721 1.554 4.076 2.352 1.857 1.094 3.699 2.189 5.453 3.439 1.322.943 2.555 1.98 3.813 3.007 1.628 1.33 3.226 2.677 4.737 4.142 1.187 1.151 2.292 2.363 3.402 3.592 1.396 1.547 2.737 3.127 4 4.792 1.013 1.335 1.96 2.704 2.882 4.112 1.146 1.747 2.204 3.539 3.2 5.39.802 1.491 1.562 2.99 2.262 4.545.368.816.853 1.561 1.191 2.394h12.33c-.094-.599-.092-1.183-.175-1.78-.421-2.957-.715-5.891-.863-8.799-.032-.667-.048-1.329-.066-1.992-.101-3.281-.024-6.565.231-9.837.016-.19.022-.383.039-.573 1.132-13.347 5.262-26.267 12.084-37.795.665-1.136 1.472-2.17 2.179-3.276.472-.742.975-1.475 1.47-2.211 1.712-2.534 3.499-5.001 5.411-7.38.614-.767 1.255-1.526 1.896-2.286 2.032-2.402 4.134-4.728 6.336-6.969.348-.355.631-.73.985-1.083-.897-31.534-24.456-57.219-54.82-61.626.016-.224.034-.449.034-.677.02-20.189 16.382-36.551 36.571-36.571 5.049 0 9.143-4.093 9.143-9.143 0-5.049-4.093-9.143-9.143-9.143-18.4.01-35.568 9.248-45.714 24.598-10.143-15.349-27.308-24.587-45.706-24.598-5.049 0-9.143 4.093-9.143 9.143 0 5.049 4.093 9.143 9.143 9.143 20.186.024 36.543 16.385 36.562 36.571 0 .214.018.424.032.635-17.084 2.416-32.617 11.684-42.851 25.898zM223.656 245.02c-.002.288-.022.573-.021.863.02 3.266.246 6.528.677 9.766.081.619.187 1.243.283 1.865.164 1.075.465 2.176.673 3.259h17.723c.059-.151.145-.286.205-.436 1.483-3.727 3.186-7.363 5.101-10.888.286-.527.572-1.049.867-1.57 12.885-22.955 34.313-39.893 59.623-47.13l.194-.056c4.245-1.217 8.566-2.152 12.935-2.8 1.45-2.104 2.9-4.208 4.148-6.257.341-.561.635-1.097.957-1.648 1.439-2.453 2.747-4.868 3.888-7.234.289-.602.554-1.187.819-1.775.97-2.133 1.791-4.22 2.512-6.277.32-.92.625-1.828.888-2.709.532-1.76.944-3.479 1.285-5.176 2.037-7.963.99-16.402-2.931-23.625-30.193 8.791-58.184 23.87-82.136 44.247-5.652 5.265-10.686 11.155-15.006 17.558-.198.296-.392.595-.586.893-7.735 11.598-11.938 25.191-12.098 39.13zM330.942 215.464c-1.229.085-2.469.12-3.684.259-2.89.35-5.759.854-8.595 1.508-1.009.225-2.039.388-3.035.649-3.047.821-6.043 1.817-8.975 2.984-.681.266-1.392.47-2.065.754-3.234 1.376-6.376 2.959-9.406 4.738-.306.178-.635.315-.938.498-13.441 8.087-24.282 19.859-31.236 33.919h147.415c-1.851-3.726-3.985-7.305-6.383-10.705-.302-.432-.665-.81-.974-1.235-2.144-2.956-4.483-5.765-7.002-8.408-.403-.421-.848-.796-1.26-1.209-2.549-2.551-5.26-4.934-8.117-7.134-3.289-2.51-6.764-4.765-10.395-6.747-3.274-1.801-6.671-3.37-10.165-4.696-.538-.206-1.082-.399-1.626-.594-3.304-1.174-6.679-2.138-10.105-2.886-.699-.152-1.393-.314-2.098-.449-3.144-.589-6.319-.997-9.51-1.223-1.071-.079-2.132-.188-3.212-.225-2.878-.087-5.761-.019-8.634.202zM419.993 241.006c1.811 2.69 3.495 5.477 5.052 8.361.262.482.541.953.795 1.439 1.607 3.088 3.055 6.256 4.336 9.493.064.162.153.311.216.474h20.518c10.932-14.535 18.523-31.302 22.232-49.107-23.02-10.676-50.234-6.121-68.522 11.47 5.585 5.115 10.57 10.849 14.859 17.091.177.257.34.521.514.779zM97.742 241.617c-.913.564-1.79 1.179-2.667 1.795-1.101.768-2.182 1.56-3.223 2.406-.934.761-1.834 1.561-2.717 2.381-.908.84-1.786 1.711-2.635 2.612-.855.904-1.678 1.837-2.47 2.801-.784.955-1.522 1.945-2.242 2.954-.714 1.001-1.414 2.011-2.062 3.063-.228.371-.416.768-.636 1.145h94.591c-.498-.852-.969-1.721-1.51-2.542-.517-.784-1.016-1.579-1.571-2.332-1.225-1.645-2.54-3.221-3.941-4.72-.424-.458-.8-.96-1.238-1.403-1.872-1.889-3.876-3.642-5.998-5.244-.528-.399-1.104-.727-1.646-1.107-1.639-1.162-3.339-2.235-5.094-3.214-.813-.448-1.655-.839-2.489-1.246-1.599-.778-3.232-1.486-4.905-2.109-.905-.336-1.814-.662-2.738-.951-1.784-.547-3.594-1.003-5.425-1.364-.837-.17-1.661-.385-2.509-.516-4.484-.788-9.061-.894-13.576-.315-.856.1-1.742.199-2.471.304-2.594.374-5.157.934-7.67 1.676-.114.034-.223.081-.336.117-2.202.672-4.36 1.481-6.46 2.425-.708.319-1.386.693-2.079 1.041-1.46.726-2.898 1.492-4.283 2.343zM3.098 286.622c25.293 61.394 69.429 113.171 126.043 147.866h116.135c5.049 0 9.143 4.093 9.143 9.143s-4.093 9.143-9.143 9.143H135.563v10.179c.007 4.478 3.638 8.105 8.116 8.107h221.482c4.478-.002 8.109-3.629 8.116-8.107v-10.179h-18.286c-5.049 0-9.143-4.093-9.143-9.143s4.093-9.143 9.143-9.143h24.699c56.601-34.692 100.731-86.454 126.033-147.83l3.116-7.598H0l3.098 7.562zM58.634 260.773c.453-1.117 1.027-2.164 1.532-3.252.335-.719.654-1.441 1.011-2.147 1.573-3.153 3.374-6.187 5.387-9.078.127-.18.274-.341.402-.52 1.964-2.713 4.112-5.287 6.429-7.705.442-.465.876-.929 1.329-1.382 4.938-4.936 10.556-9.141 16.684-12.488.794-.437 1.589-.854 2.399-1.261 2.576-1.293 5.226-2.432 7.936-3.411.525-.191 1.008-.471 1.538-.649-.147-.225-.296-.49-.443-.713-.547-.831-1.088-1.586-1.632-2.384-1.759-2.549-3.41-4.862-5.01-6.941-21.389-27.877-39.844-30.546-47.036-30.844-16.568 24.418-19.704 55.545-8.339 82.777h17.813zM504.173 78.39v-.001l-13.405-4.467 16.976-16.971c3.532-3.577 3.513-9.334-.041-12.888-3.554-3.554-9.311-3.572-12.888-.04l-16.969 16.963-4.46-13.392c-1.598-4.793-6.778-7.383-11.571-5.786-4.793 1.598-7.383 6.778-5.786 11.571l5.198 15.611c-1.918-.223-3.873-.283-5.854-.12-6.078.526-11.842 2.927-16.496 6.871l13.996 13.996c3.529 3.577 3.509 9.331-.044 12.884-3.553 3.553-9.307 3.572-12.884.044l-13.362-13.362-13.629 15.37 12.492 12.492c3.528 3.577 3.509 9.331-.044 12.884-3.553 3.553-9.307 3.572-12.884.044l-11.716-11.715-17.926 20.216 15.142 15.142c3.528 3.577 3.509 9.331-.044 12.884-3.553 3.553-9.307 3.572-12.884.044l-14.366-14.365-16.34 18.428c-.03.143-.08.291-.11.435-.346 1.614-.772 3.269-1.263 4.971-.247.862-.53 1.732-.811 2.601-.473 1.455-.945 2.904-1.531 4.42-.814 2.114-1.733 4.25-2.742 6.405-.482 1.025-1.029 2.078-1.563 3.128-.735 1.45-1.443 2.895-2.264 4.362l.233.028c12.388.93 24.497 4.151 35.71 9.499l94.218-83.545c.238-.214.488-.414.75-.598 9.791-6.996 14.244-19.122 11.629-30.62l11.75 3.915c4.783 1.58 9.942-1.007 11.537-5.785s-.98-9.944-5.754-11.553z" transform="translate(0 -1)" fill="#fedb34"/>
    </g>
</svg>
